<svg height="512pt" viewBox="0 -26 512 512" width="512pt" xmlns="http://www.w3.org/2000/svg"><path d="m512 70.621094v370.757812c-.027344 9.738282-7.917969 17.628906-17.65625 17.65625h-476.6875c-9.738281-.027344-17.6289062-7.917968-17.65625-17.65625v-370.757812zm0 0" fill="#90bae1"/><path d="m512 17.65625v70.621094h-512v-70.621094c.0273438-9.738281 7.917969-17.6289062 17.65625-17.65625h476.6875c9.738281.0273438 17.628906 7.917969 17.65625 17.65625zm0 0" fill="#35495e"/><path d="m61.792969 44.136719c0 9.75-7.90625 17.65625-17.65625 17.65625s-17.652344-7.90625-17.652344-17.65625 7.902344-17.652344 17.652344-17.652344 17.65625 7.902344 17.65625 17.652344zm0 0" fill="#ff5364"/><path d="m123.585938 44.136719c0 9.75-7.902344 17.65625-17.65625 17.65625-9.75 0-17.652344-7.90625-17.652344-17.65625s7.902344-17.652344 17.652344-17.652344c9.753906 0 17.65625 7.902344 17.65625 17.652344zm0 0" fill="#f0c419"/><path d="m185.378906 44.136719c0 9.75-7.902344 17.65625-17.65625 17.65625-9.75 0-17.652344-7.90625-17.652344-17.65625s7.902344-17.652344 17.652344-17.652344c9.753906 0 17.65625 7.902344 17.65625 17.652344zm0 0" fill="#71c285"/></svg>