<?xml version="1.0" encoding="iso-8859-1"?>
<!-- Generator: Adobe Illustrator 19.0.0, SVG Export Plug-In . SVG Version: 6.00 Build 0)  -->
<svg version="1.1" id="Capa_1" xmlns="http://www.w3.org/2000/svg" xmlns:xlink="http://www.w3.org/1999/xlink" x="0px" y="0px"
	 viewBox="0 0 58 58" style="enable-background:new 0 0 58 58;" xml:space="preserve">
<path style="fill:#E7ECED;" d="M43.038,58H16.962C15.326,58,14,56.674,14,55.038V2.962C14,1.326,15.326,0,16.962,0h26.077
	C44.674,0,46,1.326,46,2.962v52.077C46,56.674,44.674,58,43.038,58z"/>
<rect x="14" y="6" style="fill:#38454F;" width="32" height="44"/>
<path style="fill:#38454F;" d="M34,4h-5c-0.552,0-1-0.447-1-1s0.448-1,1-1h5c0.552,0,1,0.447,1,1S34.552,4,34,4z"/>
<path style="fill:#38454F;" d="M26,4h-1c-0.552,0-1-0.447-1-1s0.448-1,1-1h1c0.552,0,1,0.447,1,1S26.552,4,26,4z"/>
<circle style="fill:#AFB6BB;" cx="30" cy="54" r="3"/>

<g>
</g>
<g>
</g>
<g>
</g>
<g>
</g>
<g>
</g>
<g>
</g>
<g>
</g>
<g>
</g>
<g>
</g>
<g>
</g>
<g>
</g>
<g>
</g>
<g>
</g>
<g>
</g>
<g>
</g>
</svg>
